<svg xmlns="http://www.w3.org/2000/svg" version="1.1" xmlns:xlink="http://www.w3.org/1999/xlink" xmlns:svgjs="http://svgjs.dev/svgjs" width="1000" height="1000" viewBox="0 0 1000 1000"><g transform="matrix(1,0,0,1,-0.14221556886212738,-0.14221556886229791)"><svg viewBox="0 0 334 334" data-background-color="#ffffff" preserveAspectRatio="xMidYMid meet" height="1000" width="1000" xmlns="http://www.w3.org/2000/svg" xmlns:xlink="http://www.w3.org/1999/xlink"><g id="tight-bounds" transform="matrix(1,0,0,1,0.04749999999998522,0.04750000000001364)"><svg viewBox="0 0 333.90454557049503 333.90454557049503" height="333.90454557049503" width="333.90454557049503"><g><svg></svg></g><g><svg viewBox="0 0 333.90454557049503 333.90454557049503" height="333.90454557049503" width="333.90454557049503"><g><path d="M0 166.952c0-92.205 74.747-166.952 166.952-166.952 92.205 0 166.952 74.747 166.953 166.952 0 92.205-74.747 166.952-166.953 166.953-92.205 0-166.952-74.747-166.952-166.953zM166.952 316.63c82.665 0 149.677-67.013 149.678-149.678 0-82.665-67.013-149.677-149.678-149.677-82.665 0-149.677 67.013-149.677 149.677 0 82.665 67.013 149.677 149.677 149.678z" data-fill-palette-color="tertiary" fill="#ff4057" stroke="transparent"></path><ellipse rx="160.27418187383762" ry="160.27418187383762" cx="166.95227278524752" cy="166.95227278524752" fill="#ff4057" stroke="transparent" stroke-width="0" fill-opacity="1" data-fill-palette-color="tertiary"></ellipse></g><g transform="matrix(1,0,0,1,90.89230347446454,71.17305217166896)"><svg viewBox="0 0 152.11993862156595 191.55844122715712" height="191.55844122715712" width="152.11993862156595"><g><svg viewBox="0 0 152.11993862156595 191.55844122715712" height="191.55844122715712" width="152.11993862156595"><g><svg viewBox="0 0 152.11993862156595 191.55844122715712" height="191.55844122715712" width="152.11993862156595"><g><svg viewBox="0 0 152.11993862156595 191.55844122715712" height="191.55844122715712" width="152.11993862156595"><g id="textblocktransform"><svg viewBox="0 0 152.11993862156595 191.55844122715712" height="191.55844122715712" width="152.11993862156595" id="textblock"><g><svg viewBox="0 0 152.11993862156595 191.55844122715712" height="191.55844122715712" width="152.11993862156595"><g transform="matrix(1,0,0,1,0,0)"><svg width="152.11993862156595" viewBox="2.2899999618530273 -36.040000915527344 29.009998321533203 36.53000259399414" height="191.55844122715712" data-palette-color="#ffffff"><path d="M31.3-18.68L31.3-4.49Q29.32-2.12 25.71-0.82 22.09 0.49 17.7 0.49L17.7 0.49Q13.09 0.49 9.61-1.53 6.13-3.54 4.24-7.37 2.34-11.21 2.29-16.38L2.29-16.38 2.29-18.8Q2.29-24.12 4.09-28.02 5.88-31.91 9.27-33.97 12.65-36.04 17.19-36.04L17.19-36.04Q23.51-36.04 27.08-33.02 30.64-30 31.3-24.24L31.3-24.24 24.17-24.24Q23.68-27.29 22.01-28.71 20.34-30.13 17.41-30.13L17.41-30.13Q13.67-30.13 11.72-27.32 9.77-24.51 9.74-18.97L9.74-18.97 9.74-16.7Q9.74-11.11 11.87-8.25 13.99-5.4 18.09-5.4L18.09-5.4Q22.22-5.4 23.97-7.15L23.97-7.15 23.97-13.28 17.31-13.28 17.31-18.68 31.3-18.68Z" opacity="1" transform="matrix(1,0,0,1,0,0)" fill="#ffffff" class="undefined-text-0" data-fill-palette-color="quaternary" id="text-0"></path></svg></g></svg></g></svg></g></svg></g><g></g></svg></g></svg></g></svg></g></svg></g><defs></defs></svg><rect width="333.90454557049503" height="333.90454557049503" fill="none" stroke="none" visibility="hidden"></rect></g></svg></g></svg>